<svg id="LOGO" xmlns="http://www.w3.org/2000/svg" viewBox="0 0 881.53 752.71"><defs><style>.cls-1{stroke:#1d1d1b;stroke-miterlimit:10;}.cls-2{fill:#f39321;}.cls-3{fill:#fff;}</style></defs><g id="Rectangle"><rect class="cls-1" x="0.5" y="0.5" width="880.53" height="751.71"/></g><g id="BB"><g id="First_B" data-name="First B"><path class="cls-2" d="M102.7,236.72c34.2-7.2,88.2-12.6,143.1-12.6,78.3,0,128.7,13.5,166.5,44.1,31.5,23.4,50.4,59.4,50.4,107.1,0,58.5-38.7,109.8-102.6,133.2v1.8c57.6,14.4,125.1,62.1,125.1,152.1,0,52.19-20.7,91.79-51.3,121.49-42.3,38.7-110.7,56.7-209.7,56.7-54,0-95.4-3.6-121.5-7.2ZM181,485.12h71.1c82.8,0,131.4-43.2,131.4-101.7,0-71.1-54-99-133.2-99-36,0-56.7,2.7-69.3,5.4Zm0,290.69c15.3,2.7,37.8,3.6,65.7,3.6,81,0,155.7-29.7,155.7-117.9,0-82.79-71.1-117-156.6-117H181Z" transform="translate(-51.96 -156.06)"/></g><g id="Second_B" data-name="Second B"><path class="cls-3" d="M517.31,236.72c34.2-7.2,88.2-12.6,143.1-12.6,78.3,0,128.7,13.5,166.5,44.1,31.5,23.4,50.39,59.4,50.39,107.1,0,58.5-38.7,109.8-102.59,133.2v1.8c57.59,14.4,125.09,62.1,125.09,152.1,0,52.19-20.7,91.79-51.3,121.49-42.29,38.7-110.69,56.7-209.69,56.7-54,0-95.4-3.6-121.5-7.2Zm78.3,248.4h71.1c82.8,0,131.4-43.2,131.4-101.7,0-71.1-54-99-133.2-99-36,0-56.7,2.7-69.3,5.4Zm0,290.69c15.3,2.7,37.8,3.6,65.7,3.6,81,0,155.69-29.7,155.69-117.9,0-82.79-71.09-117-156.59-117h-64.8Z" transform="translate(-51.96 -156.06)"/></g></g></svg>